<?xml version="1.0" standalone="no"?>
<!DOCTYPE svg PUBLIC "-//W3C//DTD SVG 20010904//EN"
 "http://www.w3.org/TR/2001/REC-SVG-20010904/DTD/svg10.dtd">
<svg version="1.0" xmlns="http://www.w3.org/2000/svg"
 width="460.000000pt" height="405.000000pt" viewBox="0 0 460.000000 405.000000"
 preserveAspectRatio="xMidYMid meet">

<g transform="translate(0.000000,405.000000) scale(0.100000,-0.100000)"
fill="#000000" stroke="none">
<path d="M2195 4044 c-16 -2 -72 -9 -124 -15 -275 -32 -586 -147 -831 -307
-147 -96 -240 -173 -366 -305 -283 -295 -465 -657 -533 -1057 -93 -548 43
-1111 377 -1559 70 -94 243 -274 339 -353 245 -200 551 -346 873 -416 119 -26
139 -27 405 -27 301 0 369 8 574 70 551 165 1001 549 1251 1067 373 772 217
1694 -390 2305 -307 310 -703 512 -1135 578 -98 15 -381 28 -440 19z m350
-144 c286 -33 576 -137 818 -294 237 -153 456 -382 602 -631 398 -676 332
-1542 -165 -2150 -84 -103 -263 -271 -365 -343 -331 -234 -701 -352 -1098
-352 -494 1 -943 180 -1299 519 -282 268 -473 611 -554 996 -35 164 -44 455
-20 628 119 847 779 1506 1625 1622 119 16 336 18 456 5z"/>
<path d="M2079 3725 c-491 -80 -900 -342 -1174 -750 -382 -569 -386 -1322 -12
-1893 258 -394 643 -657 1100 -752 201 -42 481 -42 686 0 361 73 707 274 947
547 666 762 547 1913 -261 2525 -193 146 -431 252 -691 308 -129 28 -463 37
-595 15z m-278 -571 c38 -9 118 -40 177 -70 l107 -55 89 16 c118 20 352 20
476 -1 l96 -16 63 37 c107 63 214 98 304 99 76 1 79 0 107 -31 16 -18 36 -56
45 -85 20 -63 30 -236 18 -293 -8 -37 -6 -45 29 -100 21 -33 50 -96 65 -140
26 -74 28 -92 27 -230 -1 -119 -6 -167 -23 -230 -65 -247 -220 -414 -457 -491
-83 -27 -85 -28 -78 -53 4 -14 9 -151 11 -304 l4 -277 -30 -30 c-31 -32 -83
-40 -122 -20 -44 24 -49 55 -49 307 -1 259 -4 278 -58 352 -41 56 -42 99 -4
141 24 26 39 31 122 44 271 43 406 152 467 377 12 44 17 103 17 189 0 146 -15
196 -89 295 -57 75 -61 92 -41 164 17 62 21 177 7 200 -13 20 -97 -13 -210
-81 -93 -56 -83 -55 -246 -24 -121 23 -316 21 -459 -6 l-119 -22 -56 32 c-78
46 -191 100 -223 107 -25 7 -27 5 -34 -42 -4 -29 -2 -74 6 -113 26 -137 26
-139 -23 -202 -86 -111 -115 -223 -98 -379 18 -159 51 -247 124 -326 85 -92
167 -132 346 -168 90 -19 119 -28 139 -49 37 -36 35 -83 -6 -140 -58 -81 -62
-104 -62 -368 l0 -240 -29 -29 c-22 -21 -39 -29 -66 -29 -81 0 -105 40 -105
173 l0 93 -97 1 c-184 1 -277 57 -446 266 -22 27 -58 57 -84 69 -58 27 -80 72
-62 125 15 46 62 76 109 67 75 -13 132 -60 255 -207 26 -32 64 -69 84 -82 48
-32 123 -47 188 -39 l53 6 0 42 c0 23 6 66 14 96 8 30 14 55 13 56 -1 0 -45
15 -97 33 -123 42 -199 89 -280 170 -110 112 -168 249 -190 454 -21 188 10
337 100 477 29 45 29 46 18 118 -9 55 -9 94 -1 151 32 215 83 256 264 215z"/>
</g>
</svg>
